<svg width="50" height="50" viewBox="0 0 50 50" fill="none" xmlns="http://www.w3.org/2000/svg">
<g id="Auction 1">
<path id="Vector" d="M28.9997 2.00781C28.2302 2.00781 27.4606 2.29687 26.8786 2.87891L18.8786 10.8789C17.7146 12.043 17.7146 13.957 18.8786 15.1211C19.7927 16.0352 21.1677 16.2188 22.281 15.6953L26.4919 19.9062L15.488 30.125C15.3396 30.0352 15.1638 29.9922 14.988 29.9883C14.6481 29.9922 14.3278 30.168 14.1442 30.457C13.9606 30.75 13.9411 31.1133 14.0896 31.4219L3.19111 41.5469C1.65205 42.9727 1.60518 45.4258 3.08955 46.9062H3.09346C4.57393 48.3906 7.02705 48.3477 8.45283 46.8125L18.5778 35.9102C18.9724 36.1055 19.4489 36.0156 19.7458 35.6953C20.0466 35.3711 20.1013 34.8906 19.8786 34.5117L30.0935 23.5078L34.3044 27.7188C33.781 28.832 33.9646 30.207 34.8786 31.1211C36.0427 32.2852 37.9567 32.2852 39.1208 31.1211L47.1208 23.1211C48.2849 21.957 48.2849 20.043 47.1208 18.8789C46.5388 18.2969 45.7692 18.0039 44.9997 18.0039C44.5583 18.0039 44.1247 18.1133 43.7185 18.3047L31.695 6.28125C32.2185 5.16797 32.0349 3.79297 31.1208 2.87891C30.5388 2.29687 29.7692 2.00781 28.9997 2.00781ZM28.9997 3.99219C29.2536 3.99219 29.5075 4.09375 29.7067 4.29297C30.1052 4.69141 30.1052 5.30859 29.7067 5.70703L21.7067 13.707C21.3083 14.1055 20.6911 14.1055 20.2927 13.707C19.8942 13.3086 19.8942 12.6914 20.2927 12.293L28.2927 4.29297C28.4919 4.09375 28.7458 3.99219 28.9997 3.99219ZM30.4138 7.82812L32.5856 10L25.9997 16.5859L23.8278 14.4141L30.4138 7.82812ZM33.9997 11.4141L38.5856 16L31.9997 22.5859L27.4138 18L33.9997 11.4141ZM39.9997 17.4141L42.1716 19.5859L35.5856 26.1719L33.4138 24L39.9997 17.4141ZM44.9997 19.9961C45.2536 19.9961 45.5075 20.0938 45.7067 20.293C46.1052 20.6914 46.1052 21.3086 45.7067 21.707L37.7067 29.707C37.3083 30.1055 36.6911 30.1055 36.2927 29.707C35.8942 29.3086 35.8942 28.6914 36.2927 28.293L44.2927 20.293C44.4919 20.0938 44.7458 19.9961 44.9997 19.9961ZM27.8122 21.4062L28.5935 22.1875L18.4841 33.0703L16.9294 31.5156L27.8122 21.4062ZM15.4646 32.875L17.1247 34.5352L6.99189 45.4492C6.31611 46.1758 5.20674 46.1953 4.50752 45.4961C3.80439 44.793 3.82393 43.6836 4.55049 43.0117L15.4646 32.875Z" fill="black"/>
</g>
</svg>
