<svg width="50" height="50" viewBox="0 0 50 50" fill="none" xmlns="http://www.w3.org/2000/svg">
<g id="Business 1" clip-path="url(#clip0_176_288)">
<path id="Vector" d="M25 2C22.5273 2 20.3164 2.73047 18.6875 3.96875C17.332 4.99609 16.3789 6.40234 16.0938 8H3C1.35547 8 0 9.35547 0 11V27.8125C-0.0078125 27.875 -0.0078125 27.9375 0 28V45C0 46.6445 1.35547 48 3 48H47C48.6445 48 50 46.6445 50 45V27.9062C50 27.875 50 27.8438 50 27.8125V11C50 9.35547 48.6445 8 47 8H33.9062C33.6211 6.40234 32.668 4.99609 31.3125 3.96875C29.6836 2.73047 27.4727 2 25 2ZM25 4C27.082 4 28.8633 4.62891 30.0938 5.5625C31.0078 6.25781 31.6211 7.07812 31.875 8H18.125C18.3789 7.07812 18.9922 6.25781 19.9062 5.5625C21.1367 4.62891 22.918 4 25 4ZM3 10H47C47.5664 10 48 10.4336 48 11V27.8125C47.9961 27.8555 47.9961 27.8945 48 27.9375V28C48 28.5664 47.5664 29 47 29H30C30 27.3555 28.6445 26 27 26H23C21.3555 26 20 27.3555 20 29H3C2.43359 29 2 28.5664 2 28C2.00781 27.9375 2.00781 27.875 2 27.8125V11C2 10.4336 2.43359 10 3 10ZM23 28H27C27.5664 28 28 28.4336 28 29V29.8125C28 29.8438 28 29.875 28 29.9062V30C27.9922 30.0742 27.9922 30.1445 28 30.2188V31C28 31.5664 27.5664 32 27 32H23C22.4336 32 22 31.5664 22 31V30.1875C22.0273 30.0547 22.0273 29.9141 22 29.7812V29C22 28.4336 22.4336 28 23 28ZM2 30.8125C2.31641 30.9258 2.64844 31 3 31H20C20 32.6445 21.3555 34 23 34H27C28.6445 34 30 32.6445 30 31H47C47.3516 31 47.6836 30.9258 48 30.8125V45C48 45.5664 47.5664 46 47 46H3C2.43359 46 2 45.5664 2 45V30.8125Z" fill="black"/>
</g>
<defs>
<clipPath id="clip0_176_288">
<rect width="50" height="50" fill="white"/>
</clipPath>
</defs>
</svg>
