<svg width="50" height="50" viewBox="0 0 50 50" fill="none" xmlns="http://www.w3.org/2000/svg">
<g id="Connection to Account 1" clip-path="url(#clip0_176_283)">
<path id="Vector" d="M14 0C10.6981 0 8 2.69814 8 6C8 9.30186 10.6981 12 14 12C17.3019 12 20 9.30186 20 6C20 2.69814 17.3019 0 14 0ZM36.0996 0C32.7977 0 30.0996 2.69814 30.0996 6C30.0996 9.30186 32.7977 12 36.0996 12C39.4015 12 42.0996 9.30186 42.0996 6C42.0996 2.69814 39.4015 0 36.0996 0ZM14 2C16.221 2 18 3.77902 18 6C18 8.22098 16.221 10 14 10C11.779 10 10 8.22098 10 6C10 3.77902 11.779 2 14 2ZM36.0996 2C38.3206 2 40.0996 3.77902 40.0996 6C40.0996 8.22098 38.3206 10 36.0996 10C33.8786 10 32.0996 8.22098 32.0996 6C32.0996 3.77902 33.8786 2 36.0996 2ZM10.0996 13C7.09232 13 4.57248 15.2231 4.08984 18.1016C3.11726 18.3138 2.23855 18.8474 1.54297 19.543C0.635834 20.4501 0 21.6667 0 23C0 25.4307 2.01649 27.8265 6.04883 28.6582C10.0812 29.4899 16.2186 28.9818 25.3164 25.9492C33.9513 23.0637 39.8267 22.5536 43.3809 23.1543C45.1579 23.4546 46.3405 24.0268 47.043 24.6465C47.7455 25.2662 48 25.9033 48 26.5703C48 27.336 47.7216 28.1196 47.2324 28.6777C46.9344 29.0177 46.5594 29.2717 46.0996 29.4277V27C46.1014 26.8662 46.0764 26.7334 46.026 26.6095C45.9756 26.4855 45.9008 26.373 45.8061 26.2784C45.7114 26.1839 45.5987 26.1094 45.4747 26.0592C45.3506 26.009 45.2178 25.9842 45.084 25.9863C44.8191 25.9905 44.5667 26.0995 44.3821 26.2896C44.1976 26.4796 44.096 26.7351 44.0996 27V30.4043C44.0757 30.5288 44.0757 30.6567 44.0996 30.7812V32.8008C44.0996 32.7341 43.9294 33 43.8008 33H41.0996C40.8344 33 40.5801 33.1054 40.3925 33.2929C40.205 33.4805 40.0996 33.7348 40.0996 34V47.6992C40.0996 47.8278 39.9294 48 39.8008 48H32.3008C32.1722 48 32 47.8278 32 47.6992V34C32 33.7348 31.8946 33.4805 31.7071 33.2929C31.5195 33.1054 31.2652 33 31 33H28.3008C28.1722 33 28 32.8278 28 32.6992V29C28.0019 28.8675 27.9774 28.7359 27.928 28.613C27.8786 28.49 27.8052 28.3781 27.7122 28.2837C27.6191 28.1893 27.5082 28.1144 27.386 28.0632C27.2637 28.0121 27.1325 27.9858 27 27.9858C26.8675 27.9858 26.7363 28.0121 26.614 28.0632C26.4918 28.1144 26.3809 28.1893 26.2878 28.2837C26.1948 28.3781 26.1214 28.49 26.072 28.613C26.0226 28.7359 25.9981 28.8675 26 29V32.6992C26 33.9706 27.0294 35 28.3008 35H30V47.6992C30 48.9706 31.0294 50 32.3008 50H39.8008C41.0722 50 42.0996 48.9706 42.0996 47.6992V35H43.8008C45.0722 35 46.0996 34.0674 46.0996 32.8008V31.4961C47.1784 31.2834 48.0911 30.7323 48.7363 29.9961C49.5752 29.039 50 27.8046 50 26.5703C50 25.3313 49.4369 24.0901 48.3672 23.1465C47.2975 22.2029 45.7536 21.5265 43.7129 21.1816C39.6316 20.4918 33.5067 21.1023 24.6836 24.0508C15.7814 27.0182 9.91883 27.4145 6.45117 26.6992C2.98351 25.984 2 24.3813 2 23C2 22.3333 2.36417 21.5499 2.95703 20.957C3.2671 20.647 3.62964 20.4039 4 20.2383V23C3.99813 23.1325 4.02261 23.2641 4.07202 23.387C4.12143 23.51 4.1948 23.6219 4.28784 23.7163C4.38088 23.8107 4.49176 23.8856 4.61401 23.9368C4.73627 23.9879 4.86748 24.0142 5 24.0142C5.13252 24.0142 5.26373 23.9879 5.38599 23.9368C5.50824 23.8856 5.61912 23.8107 5.71216 23.7163C5.8052 23.6219 5.87857 23.51 5.92798 23.387C5.97739 23.2641 6.00187 23.1325 6 23V19.168C6.01093 19.1035 6.01551 19.0381 6.01367 18.9727C6.08311 16.7796 7.89072 15 10.0996 15H17.9004C20.1528 15 22 16.8472 22 19.0996V21C21.9981 21.1325 22.0226 21.2641 22.072 21.387C22.1214 21.51 22.1948 21.6219 22.2878 21.7163C22.3809 21.8107 22.4918 21.8856 22.614 21.9368C22.7363 21.9879 22.8675 22.0142 23 22.0142C23.1325 22.0142 23.2637 21.9879 23.386 21.9368C23.5082 21.8856 23.6191 21.8107 23.7122 21.7163C23.8052 21.6219 23.8786 21.51 23.928 21.387C23.9774 21.2641 24.0019 21.1325 24 21V19.0996C24 15.752 21.248 13 17.9004 13H10.0996ZM32.1992 13C28.8516 13 26.0996 15.752 26.0996 19.0996V20C26.0977 20.1325 26.1222 20.2641 26.1716 20.387C26.221 20.51 26.2944 20.6219 26.3874 20.7163C26.4805 20.8107 26.5914 20.8856 26.7136 20.9368C26.8359 20.9879 26.9671 21.0142 27.0996 21.0142C27.2321 21.0142 27.3633 20.9879 27.4856 20.9368C27.6079 20.8856 27.7187 20.8107 27.8118 20.7163C27.9048 20.6219 27.9782 20.51 28.0276 20.387C28.077 20.2641 28.1015 20.1325 28.0996 20V19.0996C28.0996 16.8472 29.9468 15 32.1992 15H40C42.2524 15 44.0996 16.8472 44.0996 19.0996C44.0977 19.2321 44.1222 19.3637 44.1716 19.4867C44.221 19.6096 44.2944 19.7215 44.3874 19.8159C44.4805 19.9103 44.5914 19.9852 44.7136 20.0364C44.8359 20.0875 44.9671 20.1139 45.0996 20.1139C45.2321 20.1139 45.3633 20.0875 45.4856 20.0364C45.6079 19.9852 45.7187 19.9103 45.8118 19.8159C45.9048 19.7215 45.9782 19.6096 46.0276 19.4867C46.077 19.3637 46.1015 19.2321 46.0996 19.0996C46.0996 15.752 43.3476 13 40 13H32.1992ZM23.084 28.9863C22.8191 28.9905 22.5667 29.0995 22.3821 29.2896C22.1976 29.4796 22.096 29.7351 22.0996 30V32.6992C22.0996 32.8278 21.9294 33 21.8008 33H19.0996C18.8344 33 18.5801 33.1054 18.3925 33.2929C18.205 33.4805 18.0996 33.7348 18.0996 34V47.6992C18.0996 47.8278 17.9294 48 17.8008 48H10.3008C10.1722 48 10 47.8278 10 47.6992V34C9.99997 33.7348 9.89461 33.4805 9.70708 33.2929C9.51955 33.1054 9.26521 33 9 33H6.30078C6.17221 33 6 32.7341 6 32.8008V32C6.00187 31.8675 5.97739 31.7359 5.92798 31.613C5.87857 31.49 5.8052 31.3781 5.71216 31.2837C5.61912 31.1893 5.50824 31.1144 5.38599 31.0632C5.26373 31.0121 5.13252 30.9858 5 30.9858C4.86748 30.9858 4.73627 31.0121 4.61401 31.0632C4.49176 31.1144 4.38088 31.1893 4.28784 31.2837C4.1948 31.3781 4.12143 31.49 4.07202 31.613C4.02261 31.7359 3.99813 31.8675 4 32V32.8008C4 34.0674 5.02935 35 6.30078 35H8V47.6992C8 48.9706 9.02935 50 10.3008 50H17.8008C19.0722 50 20.0996 48.9706 20.0996 47.6992V35H21.8008C23.0722 35 24.0996 33.9706 24.0996 32.6992V30C24.1014 29.8662 24.0764 29.7334 24.026 29.6095C23.9756 29.4855 23.9008 29.373 23.8061 29.2784C23.7114 29.1839 23.5987 29.1094 23.4747 29.0592C23.3506 29.009 23.2178 28.9842 23.084 28.9863Z" fill="black"/>
</g>
<defs>
<clipPath id="clip0_176_283">
<rect width="50" height="50" fill="white"/>
</clipPath>
</defs>
</svg>
