<svg width="50" height="51" viewBox="0 0 50 51" fill="none" xmlns="http://www.w3.org/2000/svg">
<g id="Great Britain 1" clip-path="url(#clip0_169_142)">
<path id="Vector" d="M21.9053 7.46876C21.8623 7.47657 21.8193 7.48829 21.7803 7.50001H-0.000976525V22.3125C-0.0283203 22.4453 -0.0283203 22.5859 -0.000976525 22.7188V28.1875C-0.0595703 28.3828 -0.0595703 28.5859 -0.000976525 28.7813V43.5H49.999V28.6875C50.0264 28.5547 50.0264 28.4141 49.999 28.2813V22.6875C50.0264 22.5547 50.0264 22.4141 49.999 22.2813V7.50001H28.1865C28.0537 7.47266 27.9131 7.47266 27.7803 7.50001H22.1865C22.0967 7.47657 21.999 7.46485 21.9053 7.46876ZM1.99902 9.50001H4.21777L18.4365 19.2188L19.999 20.2813V9.50001H20.999V21.5H1.99902V20.5H16.8428L14.1553 18.6875L1.99902 10.375V9.50001ZM7.71777 9.50001H17.999V16.5L7.71777 9.50001ZM22.999 9.50001H26.999V23.5H47.999V27.5H26.999V41.5H22.999V27.5H1.99902V23.5H22.999V9.50001ZM28.999 9.50001H29.999V20.2813L31.5615 19.2188L45.7803 9.50001H47.999V10.375L35.8428 18.6875L33.1553 20.5H47.999V21.5H28.999V9.50001ZM31.999 9.50001H42.2803L31.999 16.5V9.50001ZM1.99902 12.7813L10.374 18.5H1.99902V12.7813ZM47.999 12.7813V18.5H39.624L47.999 12.7813ZM1.99902 29.5H20.999V41.5H19.999V30.7188L18.4365 31.7813L4.21777 41.5H1.99902V40.625L14.1553 32.3125L16.8428 30.5H1.99902V29.5ZM28.999 29.5H47.999V30.5H33.1553L35.8428 32.3125L47.999 40.625V41.5H45.7803L31.5615 31.7813L29.999 30.7188V41.5H28.999V29.5ZM1.99902 32.5H10.374L1.99902 38.2188V32.5ZM39.624 32.5H47.999V38.2188L39.624 32.5ZM17.999 34.5V41.5H7.71777L17.999 34.5ZM31.999 34.5L42.2803 41.5H31.999V34.5Z" fill="white"/>
</g>
<defs>
<clipPath id="clip0_169_142">
<rect width="50" height="50" fill="white" transform="translate(0 0.5)"/>
</clipPath>
</defs>
</svg>
