<svg width="50" height="51" viewBox="0 0 50 51" fill="none" xmlns="http://www.w3.org/2000/svg">
<g id="Handshake 1" clip-path="url(#clip0_174_148)">
<path id="Vector" d="M34.2188 4.62503C33.1993 4.68363 32.1954 4.93363 31.2501 5.40628L25.7501 8.09378H10.1251L1.25009 5.93753C1.11728 5.89847 0.980563 5.89066 0.843844 5.90628C0.359469 5.96488 -0.00771834 6.36331 -0.0311558 6.8516C-0.0545933 7.33597 0.273532 7.76956 0.750094 7.87503L9.75009 10.0625L9.87509 10.0938H21.6563L13.1563 14.25C13.1212 14.2657 13.0978 14.2969 13.0626 14.3125C11.7423 14.8946 11.3946 16.6993 12.3751 17.75L12.3438 17.7813C12.3595 17.7969 12.3907 17.7969 12.4063 17.8125C15.3829 21.0743 20.0977 22.1563 24.2501 20.5313H24.2813L30.1563 18.25L42.2813 30.4063C43.1993 31.3243 43.1993 32.7696 42.2813 33.6875C41.3634 34.6055 39.9181 34.6055 39.0001 33.6875C38.6017 33.3672 38.0274 33.3985 37.6642 33.7578C37.3048 34.1211 37.2735 34.6953 37.5938 35.0938C38.5118 36.0118 38.5118 37.4883 37.5938 38.4063C36.6759 39.3243 35.2306 39.3243 34.3126 38.4063L33.5938 37.6875C33.1954 37.3672 32.6212 37.3985 32.2579 37.7578C31.8985 38.1211 31.8673 38.6953 32.1876 39.0938C33.1056 40.0118 33.1056 41.4883 32.1876 42.4063C31.2696 43.3243 29.8243 43.3243 28.9063 42.4063L28.2188 41.6875C27.8321 41.2891 27.1954 41.2852 26.797 41.6719C26.3985 42.0586 26.3946 42.6953 26.7813 43.0938C27.6993 44.0118 27.6993 45.4883 26.7813 46.4063C25.8634 47.3243 24.4181 47.3243 23.5001 46.4063L22.2501 45.1563L23.0001 44.4063C24.4649 42.9414 24.4649 40.5586 23.0001 39.0938C22.2696 38.3633 21.3048 38 20.3438 38C20.3321 38 20.3243 38 20.3126 38C20.3282 37.0157 19.9649 36.0274 19.2188 35.2813C18.4884 34.5508 17.5235 34.1875 16.5626 34.1875C16.5118 34.1875 16.4571 34.1836 16.4063 34.1875C16.4376 33.1836 16.0782 32.1719 15.3126 31.4063C14.5821 30.6758 13.6173 30.2813 12.6563 30.2813C12.6056 30.2813 12.5509 30.2774 12.5001 30.2813C12.5313 29.2774 12.172 28.2657 11.4063 27.5C10.6759 26.7696 9.71103 26.4063 8.75009 26.4063C7.78916 26.4063 6.82431 26.7696 6.09384 27.5L5.18759 28.4063L1.15634 27.7188C1.09384 27.7032 1.03134 27.6914 0.968844 27.6875C0.418063 27.6524 -0.0584996 28.0743 -0.0936558 28.625C-0.128812 29.1758 0.293063 29.6524 0.843844 29.6875L4.12509 30.2813C3.82822 31.5118 4.13681 32.8555 5.09384 33.8125C5.86728 34.586 6.89463 34.9493 7.90634 34.9063C7.86338 35.918 8.22666 36.9453 9.00009 37.7188C9.77353 38.4922 10.8009 38.8555 11.8126 38.8125C11.7813 39.8164 12.1407 40.8282 12.9063 41.5938C13.6524 42.3399 14.6407 42.7032 15.6251 42.6875C15.6017 43.6758 15.9532 44.6719 16.6876 45.4063L16.7188 45.4375C17.7618 46.4571 19.2618 46.7266 20.5626 46.2813L22.0938 47.8125C23.7735 49.4922 26.5392 49.4922 28.2188 47.8125C29.0352 46.9961 29.4142 45.918 29.4376 44.8438C30.8829 45.2266 32.4688 44.9375 33.5938 43.8125C34.4103 42.9961 34.8204 41.918 34.8438 40.8438C36.2853 41.2227 37.8751 40.9375 39.0001 39.8125C39.961 38.8516 40.3243 37.543 40.1876 36.2813C41.4493 36.4219 42.7579 36.0547 43.7188 35.0938C44.7931 34.0196 45.1759 32.5118 44.8751 31.125L45.4688 30.5313L49.1563 30C49.7071 29.9141 50.086 29.3946 50.0001 28.8438C49.9142 28.293 49.3946 27.9141 48.8438 28L44.8438 28.625L44.5313 28.6563L43.9376 29.25C43.8673 29.168 43.797 29.0782 43.7188 29L31.4063 16.6875C31.3595 16.6407 31.3048 16.5977 31.2501 16.5625C31.2384 16.5508 31.2306 16.543 31.2188 16.5313C30.9571 16.1446 30.4649 15.9922 30.0313 16.1563L23.5313 18.6563C20.1134 20.0078 16.2657 19.1289 13.8438 16.4375L13.8126 16.4063C13.6837 16.2774 13.6759 16.1875 13.8438 16.125H13.9063L13.9376 16.0938L26.2813 10.0625C26.4923 10.0313 26.6915 9.93363 26.8438 9.78128L32.1251 7.18753H32.1563C34.0001 6.26566 36.1524 6.45316 37.8438 7.59378L38.2188 8.03128L38.3126 8.15628L38.4376 8.21878C40.254 9.46878 42.4415 9.80081 44.5001 9.25003V9.28128L44.5626 9.25003L49.2188 8.28128C49.7618 8.16019 50.1056 7.62113 49.9845 7.07816C49.8634 6.53519 49.3243 6.19144 48.7813 6.31253L44.0938 7.31253L44.0626 7.34378H44.0313C42.5392 7.75785 41.0001 7.48441 39.6563 6.59378L39.2813 6.15628L39.1876 6.06253L39.0626 5.96878C37.9142 5.1641 36.6017 4.7266 35.2501 4.62503C34.9103 4.6016 34.5587 4.6055 34.2188 4.62503ZM8.75009 28.3438C9.18759 28.3438 9.63291 28.5391 10.0001 28.9063C10.7345 29.6407 10.7345 30.6719 10.0001 31.4063L9.21884 32.1563L9.12509 32.25L9.00009 32.4063C8.26572 33.1407 7.23447 33.1407 6.50009 32.4063C5.89853 31.8047 5.80869 31.0157 6.18759 30.3438C6.36337 30.2188 6.49228 30.0469 6.56259 29.8438L7.37509 29.0625L7.50009 28.9063C7.86728 28.5391 8.31259 28.3438 8.75009 28.3438ZM12.6563 32.25C13.0938 32.25 13.5392 32.4453 13.9063 32.8125C14.6407 33.5469 14.6407 34.5469 13.9063 35.2813L12.9063 36.2813C12.172 37.0157 11.1407 37.0157 10.4063 36.2813C9.67197 35.5469 9.67197 34.5469 10.4063 33.8125L11.4063 32.8125C11.7735 32.4453 12.2188 32.25 12.6563 32.25ZM16.5626 36.1563C17.0001 36.1563 17.4142 36.3516 17.7813 36.7188C18.3868 37.3243 18.4884 38.1133 18.0938 38.7813C17.9571 38.8828 17.8126 38.9688 17.6876 39.0938L16.6876 40.0938V40.125H16.6563C16.547 40.2461 16.4649 40.3711 16.3751 40.5C15.7071 40.8946 14.9181 40.793 14.3126 40.1875C13.5782 39.4532 13.5782 38.4532 14.3126 37.7188L15.0626 36.9375L15.2501 36.7813L15.3126 36.7188C15.6798 36.3516 16.1251 36.1563 16.5626 36.1563ZM20.3438 39.9688C20.7813 39.9688 21.2267 40.1328 21.5938 40.5C22.3282 41.2344 22.3282 42.2657 21.5938 43L20.5938 44C20.5079 44.086 20.4376 44.1836 20.3438 44.25C20.336 44.2539 20.3204 44.2461 20.3126 44.25C19.6134 44.7344 18.7384 44.6446 18.0938 44C17.6212 43.5274 17.5118 42.5821 17.8438 41.875C17.9688 41.7774 18.1056 41.7071 18.2188 41.5938L19.2188 40.5938C19.3517 40.461 19.4532 40.3047 19.5626 40.1563C19.8126 40.0313 20.0821 39.9688 20.3438 39.9688Z" fill="white"/>
</g>
<defs>
<clipPath id="clip0_174_148">
<rect width="50" height="50" fill="white" transform="translate(0 0.5)"/>
</clipPath>
</defs>
</svg>
