<svg width="50" height="50" viewBox="0 0 50 50" fill="none" xmlns="http://www.w3.org/2000/svg">
<g id="Law 1">
<path id="Vector" d="M33 2C32.6172 2 32.3008 2.16406 31.9688 2.29688C31.7852 2.28906 31.5977 2.33984 31.4375 2.4375L21.4297 8.44141C21.2773 8.53516 21.1523 8.66797 21.0664 8.82422C20.4531 9.37109 20 10.1133 20 11C20 12.6445 21.3555 14 23 14C23.2422 14 23.457 13.9297 23.668 13.8438L25.8359 17.418L4.20312 29.4258C4.05078 29.5117 3.92188 29.6367 3.83203 29.7891C2.77734 30.5078 2 31.6289 2 33C2 35.1992 3.80078 37 6 37C6.60547 37 7.12891 36.7461 7.64453 36.5039C7.84375 36.5039 8.03906 36.4492 8.20312 36.3398L28.9531 22.5547L31.418 26.6094C31.168 27.0195 31 27.4805 31 28C31 29.6445 32.3555 31 34 31C34.3867 31 34.7109 30.8281 35.0469 30.6914C35.2344 30.6992 35.4219 30.6484 35.582 30.5508L45.4219 24.6328C46.3516 24.1289 47 23.1367 47 22C47 20.3555 45.6445 19 44 19C43.6289 19 43.3203 19.1562 43 19.2812L35.4062 6.77344C35.7734 6.27734 36 5.66406 36 5C36 3.35547 34.6445 2 33 2ZM33 4C33.5664 4 34 4.43359 34 5C34 5.38281 33.7891 5.69922 33.4688 5.875C33.457 5.87891 33.4414 5.88672 33.4297 5.89844L24.3711 11.3438L24.4102 11.4062L23.9336 11.6992C23.7891 11.7148 23.6523 11.7656 23.5312 11.8438C23.3672 11.9453 23.1914 12 23 12C22.4336 12 22 11.5664 22 11C22 10.6367 22.1875 10.3359 22.4766 10.1562C22.9219 9.87891 23.0781 9.30859 22.8398 8.84375L23.2969 9.65234L32.375 4.21094C32.4102 4.19141 32.4453 4.17578 32.4805 4.15625C32.6445 4.05469 32.8125 4 33 4ZM33.8281 8.03125L41.1562 20.0938L32.8594 25.1289L30.1406 20.6523C30.1328 20.6445 30.1289 20.6367 30.125 20.625L28.082 17.2656L25.5312 13.0664L33.8281 8.03125ZM26.875 19.1289L27.918 20.8438L7.15625 34.6328C7.13672 34.6445 7.11719 34.6562 7.10156 34.668C6.78125 34.8789 6.41016 35 6 35C4.88281 35 4 34.1172 4 33C4 32.2031 4.46094 31.5352 5.13281 31.2109C5.19141 31.1797 5.24609 31.1445 5.30078 31.1055L26.875 19.1289ZM44 21C44.5664 21 45 21.4336 45 22C45 22.3828 44.7891 22.6992 44.4688 22.875C44.457 22.8789 44.4414 22.8867 44.4297 22.8945L35.3711 28.3438L35.8945 29.1367C35.5938 28.6836 34.9883 28.5547 34.5312 28.8438C34.3672 28.9453 34.1914 29 34 29C33.4336 29 33 28.5664 33 28C33 27.6367 33.1875 27.3359 33.4766 27.1562C33.5664 27.1016 33.6445 27.0312 33.7109 26.9531L34.2773 26.6094L34.2969 26.6523L43.375 21.207C43.4102 21.1914 43.4453 21.1758 43.4805 21.1562C43.6445 21.0547 43.8125 21 44 21ZM27 42C25.3555 42 24 43.3555 24 45V48H48V45C48 43.3555 46.6445 42 45 42H27ZM27 44H45C45.5664 44 46 44.4336 46 45V46H26V45C26 44.4336 26.4336 44 27 44Z" fill="white"/>
</g>
</svg>
