<svg width="50" height="50" viewBox="0 0 50 50" fill="none" xmlns="http://www.w3.org/2000/svg">
<g id="Lawyer 1">
<path id="Vector" d="M27 4C22.3 4 18.5908 5.71961 16.5508 8.84961C14.8308 11.4996 14.5405 14.9101 15.7305 18.0801C15.3505 18.6201 15.0194 19.4391 15.1094 20.5391C15.3994 22.6991 16.2304 23.5892 16.9004 23.9492C17.2304 25.7492 18.2096 27.6505 19.0996 28.5605C19.0796 29.3205 19.0402 29.8698 18.9902 30.5898C18.9802 30.6898 18.9707 30.7904 18.9707 30.9004H18.9004C18.7204 30.9004 18.5506 30.9491 18.3906 31.0391C18.3206 31.0791 16.6708 32.0598 15.3008 34.0098C8.93078 35.4698 5 40.79 5 45C5 45.55 5.45 46 6 46H22.6621C22.8261 46.0423 22.9981 46.0423 23.1621 46H26V45V44V35C26 34.7 26.0298 34.4106 26.0898 34.1406L26 34H24.2285C24.1052 33.971 23.3131 33.7808 22.4805 33.3848C22.0308 33.1709 21.6052 32.9008 21.3438 32.6426C21.0823 32.3843 21 32.1996 21 32C21.0016 31.8647 20.9756 31.7305 20.9238 31.6055C20.9445 31.3024 20.9663 30.9954 20.9805 30.7402C21.0505 29.8802 21.0996 29.1896 21.0996 28.0996C21.0996 27.7696 20.8794 27.4302 20.6094 27.2402C20.2194 26.9702 18.9708 24.9694 18.8008 23.1094C18.7508 22.5894 18.3891 22.2109 17.8691 22.2109C17.7291 22.1509 17.2796 21.6803 17.0996 20.3203C17.0896 20.2603 17.0898 20.2006 17.0898 20.1406C17.0898 19.4306 17.4609 19.1309 17.4609 19.1309C17.8609 18.8609 18.0105 18.3404 17.8105 17.9004C16.6105 15.1704 16.7605 12.1992 18.2305 9.94922C19.8005 7.52922 22.6806 6.14977 26.3906 6.00977L27.1094 7.44922C27.2694 7.78922 27.62 8 28 8C29.88 8 31.2691 8.89016 32.1191 10.6602C33.3591 13.2002 33.0309 16.7293 32.2109 17.7793C32.0009 18.0593 31.9405 18.42 32.0605 18.75C32.1705 19.03 32.3902 19.2398 32.6602 19.3398C32.7302 19.4598 32.8508 19.8002 32.8008 20.4102C32.6708 21.8902 32.1996 22.2808 32.0996 22.3008C31.5996 22.3008 31.1794 22.6604 31.1094 23.1504C30.8294 24.9904 29.6908 27.0501 29.3008 27.3301C28.9908 27.5101 28.8008 27.8392 28.8008 28.1992C28.8008 29.2292 28.8499 29.9496 28.9199 30.8496C28.9299 30.9496 28.9295 31.0404 28.9395 31.1504C29.2795 31.0504 29.63 31 30 31H30.9297C30.9297 30.9 30.9202 30.8009 30.9102 30.7109C30.8602 29.9509 30.8208 29.3804 30.8008 28.6504C31.6908 27.7004 32.5909 25.7096 32.9609 24.0996C33.6809 23.7596 34.5908 22.8801 34.8008 20.5801C34.8808 19.5901 34.6891 18.7402 34.2891 18.1602C35.1891 16.1202 35.2699 12.5393 33.9199 9.7793C32.8299 7.5393 30.9709 6.2293 28.6309 6.0293L27.8906 4.55078C27.7306 4.21078 27.38 4 27 4ZM37 29C35.9069 29 35 29.9069 35 31V33H30C28.9069 33 28 33.9069 28 35V37V41V48C28 49.0931 28.9069 50 30 50H48C49.0931 50 50 49.0931 50 48V35C50 33.9069 49.0931 33 48 33H43V31C43 29.9069 42.0931 29 41 29H37ZM37 31H41V33H37V31ZM18.252 33.668C18.3613 34.1307 18.488 34.6145 18.6465 35.1855C19.019 36.5275 19.5098 38.0957 20 39.5977C20.6045 41.4499 21.1161 42.9306 21.4902 44H18.4805L15.4414 40.2012L17.3809 38.8145C17.5465 38.6961 17.6721 38.5301 17.7408 38.3385C17.8096 38.1469 17.8182 37.9388 17.7656 37.7422L17.0449 35.0332C17.4533 34.4802 17.8694 34.0181 18.252 33.668ZM20.5312 34.4629C20.8925 34.7242 21.2486 35.0142 21.6211 35.1914C22.1652 35.4502 22.6919 35.6337 23.1055 35.7617L24 38L22.8867 41.9004C22.577 40.9963 22.2586 40.0743 21.9004 38.9766C21.4156 37.491 20.931 35.9428 20.5723 34.6504C20.5469 34.5589 20.5552 34.5526 20.5312 34.4629ZM30 35H35H43H48V41C48 41.565 47.565 42 47 42H42V41C42 39.9069 41.0931 39 40 39H38C36.9069 39 36 39.9069 36 41V42H31C30.435 42 30 41.565 30 41V37V35ZM15.2539 36.082L15.6562 37.5879L13.418 39.1855C13.3073 39.2646 13.2139 39.3654 13.1434 39.4818C13.073 39.5981 13.0271 39.7276 13.0084 39.8624C12.9898 39.9971 12.9988 40.1342 13.035 40.2654C13.0711 40.3965 13.1337 40.5189 13.2188 40.625L15.918 44H7.08984C7.62764 40.877 10.6327 37.3299 15.2539 36.082ZM38 41H40V42H38V41ZM30 43.8125C30.3149 43.9261 30.6482 44 31 44H47C47.3518 44 47.6851 43.9261 48 43.8125V48H30V43.8125Z" fill="white"/>
</g>
</svg>
