<svg width="50" height="51" viewBox="0 0 50 51" fill="none" xmlns="http://www.w3.org/2000/svg">
<g id="Positive Dynamic 1" clip-path="url(#clip0_174_145)">
<path id="Vector" d="M12.8125 7.5C12.2617 7.55078 11.8555 8.04297 11.9062 8.59375C11.957 9.14453 12.4492 9.55078 13 9.5H19.5625L2.28125 26.7812C1.88281 27.1797 1.88281 27.8203 2.28125 28.2188C2.67969 28.6172 3.32031 28.6172 3.71875 28.2188L21 10.9375V17.5C20.9961 17.8594 21.1836 18.1953 21.4961 18.3789C21.8086 18.5586 22.1914 18.5586 22.5039 18.3789C22.8164 18.1953 23.0039 17.8594 23 17.5V7.5H13C12.9688 7.5 12.9375 7.5 12.9062 7.5C12.875 7.5 12.8438 7.5 12.8125 7.5ZM34 11.5V50.5H48V11.5H34ZM36 13.5H46V48.5H36V13.5ZM18 24.5V50.5H32V24.5H18ZM20 26.5H30V48.5H20V26.5ZM2 35.5V50.5H16V35.5H2ZM4 37.5H14V48.5H4V37.5Z" fill="white"/>
</g>
<defs>
<clipPath id="clip0_174_145">
<rect width="50" height="50" fill="white" transform="translate(0 0.5)"/>
</clipPath>
</defs>
</svg>
